<svg version="1.2" xmlns="http://www.w3.org/2000/svg" viewBox="0 0 600 146" width="600" height="146"><style>.a{fill:#f9f1e1}</style><path fill-rule="evenodd" class="a" d="m110.3 78.5c9.2 0 16.6 7.6 16.6 20.5 0 12.9-7.4 20.5-16.6 20.5-5.3 0-9.1-2.3-11-6v5.5h-15.7l-0.1-52.5h15.8v17.9c1.9-3.6 5.7-5.9 11-5.9zm-5.2 13.7c-3.3 0-5.9 2.4-5.9 6.8 0 4.4 2.6 6.7 5.9 6.7 3.2 0 5.8-2.3 5.8-6.7 0-4.4-2.6-6.8-5.8-6.8zm69.1 26.8h-15.7v-6.1c-2.3 3.5-6.3 6.4-12.3 6.4-9.3 0-14.7-6.8-14.7-17.1v-23.2h15.7v21.2c0 3.8 2.2 6.2 5.6 6.2 3.5 0 5.7-2.4 5.7-6.2v-21.2h15.7zm34.1-21.2c0-3.8-2.2-6.2-5.6-6.2-3.5 0-5.6 2.4-5.6 6.2v21.2h-15.8v-40h15.8v6.1c2.3-3.5 6.2-6.4 12.3-6.4 9.2 0 14.6 6.8 14.6 17.1v23.2h-15.7zm52.9-19.3c10.3 0 18 6.1 19.9 16.6h-16.6c-0.6-1.9-1.7-3.1-3.7-3.1-2.4 0-4.1 2.2-4.1 7 0 4.8 1.7 7 4.1 7 2 0 3.1-1.2 3.7-3.1h16.6c-1.9 10.5-9.6 16.6-19.9 16.6-12 0-20.5-7.7-20.5-20.5 0-12.8 8.5-20.5 20.5-20.5zm39.3 0c5.4 0 9.2 2.3 11.1 5.9v-5.4h15.7v40h-15.7v-5.5c-1.9 3.7-5.7 6-11.1 6-9.2 0-16.5-7.6-16.5-20.5 0-12.9 7.3-20.5 16.5-20.5zm5.3 13.7c-3.3 0-5.8 2.4-5.8 6.8 0 4.4 2.5 6.7 5.8 6.7 3.2 0 5.8-2.3 5.8-6.7 0-4.4-2.6-6.8-5.8-6.8zm55.6 5.6c0-3.8-2.2-6.2-5.6-6.2-3.5 0-5.6 2.4-5.6 6.2v21.2h-15.8v-40h15.8v6.1c2.2-3.5 6.2-6.4 12.2-6.4 9.3 0 14.7 6.7 14.7 17.1v23.2h-15.7zm50.3 21.2h-15.7v-40.1h15.7v7.4c3.1-4.4 8-7.6 13.1-7.6v16.8h-4.4c-5.7 0-8.7 1.6-8.7 7.1zm59.8 0h-15.8v-6.1c-2.2 3.5-6.2 6.4-12.3 6.4-9.2 0-14.6-6.8-14.6-17.1v-23.3h15.7v21.3c0 3.8 2.2 6.1 5.6 6.1 3.5 0 5.6-2.3 5.6-6.1v-21.3h15.8zm34.1-21.3c0-3.8-2.2-6.2-5.6-6.2-3.5 0-5.6 2.4-5.6 6.2v21.2h-15.8v-40h15.8v6.1c2.2-3.5 6.2-6.4 12.2-6.4 9.3 0 14.7 6.7 14.7 17.1v23.2h-15.7z"/></svg>
