<svg version="1.2" xmlns="http://www.w3.org/2000/svg" viewBox="0 0 600 200" width="600" height="200"><style>.a{fill:#f9f1e1}</style><path class="a" d="m99.3 84.4v-17.9h-15.8l0.1 52.5h15.7v-5.5c1.9 3.7 5.7 6 11 6 9.2 0 16.6-7.6 16.6-20.5 0-12.9-7.4-20.5-16.6-20.5-5.3 0-9.1 2.3-11 5.9zm11.6 14.6c0 4.4-2.6 6.7-5.8 6.7-3.3 0-5.9-2.3-5.9-6.7 0-4.4 2.6-6.8 5.9-6.8 3.2 0 5.8 2.4 5.8 6.8zm63.3-20h-15.7v21.2c0 3.8-2.2 6.2-5.7 6.2-3.4 0-5.6-2.4-5.6-6.2v-21.2h-15.7v23.2c0 10.3 5.4 17.1 14.7 17.1 6 0 10-2.9 12.3-6.4v6.1h15.7zm34.1 40h15.7v-23.2c0-10.3-5.4-17.1-14.6-17.1-6.1 0-10 2.9-12.3 6.4v-6.1h-15.8v40h15.8v-21.2c0-3.8 2.1-6.2 5.6-6.2 3.4 0 5.6 2.4 5.6 6.2zm32.4-20c0 12.8 8.5 20.5 20.5 20.5 10.3 0 18-6.1 19.9-16.6h-16.6c-0.6 1.9-1.7 3.1-3.7 3.1-2.4 0-4.1-2.2-4.1-7 0-4.8 1.7-7 4.1-7 2 0 3.1 1.2 3.7 3.1h16.6c-1.9-10.5-9.6-16.6-19.9-16.6-12 0-20.5 7.7-20.5 20.5zm43.3 0c0 12.9 7.3 20.5 16.5 20.5 5.4 0 9.2-2.3 11.1-6v5.5h15.7v-40h-15.7v5.4c-1.9-3.6-5.7-5.9-11.1-5.9-9.2 0-16.5 7.6-16.5 20.5zm27.6 0c0 4.4-2.6 6.7-5.8 6.7-3.3 0-5.8-2.3-5.8-6.7 0-4.4 2.5-6.8 5.8-6.8 3.2 0 5.8 2.4 5.8 6.8zm49.8 20h15.7v-23.2c0-10.4-5.4-17.1-14.7-17.1-6 0-10 2.9-12.2 6.4v-6.1h-15.8v40h15.8v-21.2c0-3.8 2.1-6.2 5.6-6.2 3.4 0 5.6 2.4 5.6 6.2zm50.3-16.4c0-5.5 3-7.1 8.7-7.1h4.4v-16.8c-5.1 0-10 3.2-13.1 7.6v-7.4h-15.7v40.1h15.7zm59.8-23.7h-15.8v21.3c0 3.8-2.1 6.1-5.6 6.1-3.4 0-5.6-2.3-5.6-6.1v-21.3h-15.7v23.3c0 10.3 5.4 17.1 14.6 17.1 6.1 0 10.1-2.9 12.3-6.4v6.1h15.8zm34.1 40h15.7v-23.2c0-10.4-5.4-17.1-14.7-17.1-6 0-10 2.9-12.2 6.4v-6.1h-15.8v40h15.8v-21.2c0-3.8 2.1-6.2 5.6-6.2 3.4 0 5.6 2.4 5.6 6.2z"/></svg>